<svg xmlns="http://www.w3.org/2000/svg" viewBox="0 0 512 512">
  <defs>
    <linearGradient id="bg" x1="76" y1="48" x2="438" y2="466" gradientUnits="userSpaceOnUse">
      <stop offset="0" stop-color="#fff7c2"/>
      <stop offset="0.52" stop-color="#facc15"/>
      <stop offset="1" stop-color="#fef3c7"/>
    </linearGradient>
    <linearGradient id="card" x1="112" y1="106" x2="408" y2="390" gradientUnits="userSpaceOnUse">
      <stop offset="0" stop-color="#ffffff"/>
      <stop offset="1" stop-color="#fff7ed"/>
    </linearGradient>
  </defs>
  <rect width="512" height="512" rx="104" fill="url(#bg)"/>
  <circle cx="98" cy="104" r="38" fill="#ffffff" opacity="0.45"/>
  <circle cx="420" cy="116" r="52" fill="#fef08a" opacity="0.85"/>
  <circle cx="414" cy="410" r="42" fill="#fde68a" opacity="0.75"/>
  <path d="M118 130h276c28 0 50 22 50 50v194c0 28-22 50-50 50H118c-28 0-50-22-50-50V180c0-28 22-50 50-50Z" fill="url(#card)" stroke="#99f6e4" stroke-width="10"/>
  <path d="M120 198h272" stroke="#b45309" stroke-width="16" stroke-linecap="round" opacity="0.9"/>
  <path d="M138 246h84" stroke="#f59e0b" stroke-width="18" stroke-linecap="round"/>
  <path d="M292 246h82" stroke="#0f766e" stroke-width="18" stroke-linecap="round"/>
  <text x="256" y="360" text-anchor="middle"
    font-family="Arial, 'Malgun Gothic', sans-serif" font-size="106" font-weight="900"
    fill="#78350f" letter-spacing="1">ELWC</text>
</svg>
